<svg xmlns="http://www.w3.org/2000/svg" xmlns:xlink="http://www.w3.org/1999/xlink" version="1.1" style="display: none;">
    <defs>
        <!-- 228 296 -->
        <g id="calc">
          <rect width="228" height="296" rx="30" fill="#3A484A"/><rect x="24" y="24" width="40" height="77" rx="6" fill="#8FC9FF"/><rect x="44" y="24" width="160" height="77" rx="6" fill="#AED8FF"/><circle cx="76" cy="55" r="18" fill="#fff"/><circle cx="152" cy="55" r="18" fill="#fff"/><ellipse cx="82" cy="55" rx="11" ry="13" fill="#363E44"/><ellipse cx="158" cy="55" rx="11" ry="13" fill="#363E44"/><path fill-rule="evenodd" clip-rule="evenodd" d="M99 69.4a4 4 0 0 1 5.6-.4c4.3 3.7 7.8 4.4 10.5 4 2.8-.3 5.4-2 7.4-3.9A4 4 0 1 1 128 75a21.4 21.4 0 0 1-12 6c-5.3.8-11-.9-16.7-5.9a4 4 0 0 1-.4-5.6Z" fill="#3A4B4C"/><rect x="24" y="122" width="30" height="40" rx="9" fill="#B7B5B6"/><rect x="34" y="122" width="30" height="40" rx="9" fill="#D3D1D2"/><rect x="94" y="122" width="30" height="40" rx="9" fill="#B7B5B6"/><rect x="104" y="122" width="30" height="40" rx="9" fill="#D3D1D2"/><rect x="164" y="122" width="30" height="40" rx="9" fill="#B7B5B6"/><rect x="174" y="122" width="30" height="40" rx="9" fill="#D3D1D2"/><rect x="24" y="179" width="30" height="40" rx="9" fill="#B7B5B6"/><rect x="34" y="179" width="30" height="40" rx="9" fill="#D3D1D2"/><rect x="24" y="235" width="30" height="40" rx="9" fill="#B7B5B6"/><rect x="34" y="235" width="30" height="40" rx="9" fill="#D3D1D2"/><rect x="94" y="179" width="80" height="95" rx="27" fill="#BD354A"/><rect x="116" y="179" width="88" height="95" rx="27" fill="#DA5963"/><path d="M129.5 229.9c-4.3 0-7.8-1.4-10.5-4.3-2.7-2.8-4-6.7-4-11.7 0-3.2.6-6 1.9-8.4 1.2-2.4 2.9-4.3 5-5.5 2.3-1.3 4.8-2 7.6-2 4.3 0 7.8 1.5 10.5 4.4 2.7 2.8 4 6.7 4 11.5 0 5-1.3 8.9-4 11.7a13.8 13.8 0 0 1-10.5 4.3Zm33.5-31.2h11.6L136 256.3h-11.7l38.7-57.6Zm-33.5 23.4a4 4 0 0 0 3.5-2c.8-1.3 1.3-3.4 1.3-6.2 0-2.8-.5-4.8-1.3-6.1a4 4 0 0 0-3.5-2c-1.4 0-2.6.7-3.5 2-.9 1.4-1.3 3.4-1.3 6.1 0 2.8.4 4.8 1.3 6.2 1 1.3 2 2 3.5 2Zm40 34.9c-4.4 0-7.9-1.4-10.6-4.3-2.6-2.8-4-6.7-4-11.6 0-5 1.4-8.8 4.1-11.6 2.7-3 6.2-4.4 10.4-4.4 4.4 0 7.9 1.5 10.6 4.4 2.7 2.8 4 6.7 4 11.6 0 4.9-1.3 8.8-4 11.6a13.8 13.8 0 0 1-10.6 4.3Zm0-7.8a4 4 0 0 0 3.4-2c.9-1.3 1.3-3.3 1.3-6.1s-.4-4.9-1.3-6.2a4 4 0 0 0-3.5-2 4 4 0 0 0-3.4 2c-.9 1.3-1.3 3.4-1.3 6.2 0 2.8.4 4.8 1.3 6.1a4 4 0 0 0 3.4 2Z" fill="#fff"/>
        </g>
        <!-- 157 48 -->
        <g id="text">
          <path d="M9.94.88c1.61 0 3.02.27 4.2.81A6.12 6.12 0 0 1 16.9 4c.65.98.97 2.14.97 3.48 0 1.34-.32 2.5-.97 3.49a6.34 6.34 0 0 1-2.75 2.29c-1.18.52-2.59.79-4.2.79h-3.1v4.66H1.79V.88h8.15Zm-.3 9.19c1.03 0 1.81-.22 2.34-.67.53-.45.79-1.1.79-1.93 0-.83-.26-1.48-.8-1.93-.52-.46-1.3-.7-2.33-.7h-2.8v5.23h2.8ZM34.17 11.82l-.08 1.2H24.06c.2.71.6 1.26 1.17 1.65.6.38 1.34.56 2.22.56.66 0 1.23-.09 1.7-.28.5-.18.99-.49 1.48-.91l2.55 2.64c-1.34 1.5-3.3 2.24-5.88 2.24a9.4 9.4 0 0 1-4.26-.91 6.93 6.93 0 0 1-2.85-2.55 6.95 6.95 0 0 1-1-3.69 6.9 6.9 0 0 1 3.7-6.19 8.2 8.2 0 0 1 3.9-.91c1.37 0 2.62.29 3.74.87A6.3 6.3 0 0 1 33.18 8a7.1 7.1 0 0 1 .99 3.82ZM26.8 8.11c-.75 0-1.37.2-1.88.63-.5.43-.8 1-.94 1.73h5.65A2.75 2.75 0 0 0 26.8 8.1ZM41 6.55c.5-.62 1.14-1.1 1.92-1.4.8-.32 1.7-.48 2.72-.48v4.35a9.9 9.9 0 0 0-1.1-.07c-1.03 0-1.84.28-2.44.84-.57.56-.86 1.41-.86 2.57v6.34H36.4V4.9H41v1.65ZM54.57 18.92c-1.53 0-2.9-.3-4.1-.91a6.97 6.97 0 0 1-2.83-2.55 6.95 6.95 0 0 1-1-3.69c0-1.37.34-2.6 1-3.66a6.8 6.8 0 0 1 2.83-2.52 8.94 8.94 0 0 1 4.1-.92c1.56 0 2.9.34 4.04 1.02a5.5 5.5 0 0 1 2.42 2.77l-3.74 1.91c-.63-1.24-1.54-1.86-2.75-1.86-.86 0-1.59.3-2.16.87a3.29 3.29 0 0 0-.84 2.4c0 1.03.28 1.84.84 2.44.57.57 1.3.86 2.16.86 1.2 0 2.12-.62 2.75-1.86l3.74 1.91a5.63 5.63 0 0 1-2.42 2.8 7.9 7.9 0 0 1-4.04 1ZM76.81 11.82l-.08 1.2H66.7c.2.71.6 1.26 1.17 1.65.6.38 1.34.56 2.22.56.66 0 1.23-.09 1.7-.28.5-.18.99-.49 1.48-.91l2.55 2.64c-1.34 1.5-3.3 2.24-5.88 2.24a9.4 9.4 0 0 1-4.26-.91 6.93 6.93 0 0 1-2.85-2.55 6.95 6.95 0 0 1-.99-3.69c0-1.36.32-2.57.97-3.64a6.91 6.91 0 0 1 2.72-2.54 8.2 8.2 0 0 1 3.9-.92c1.37 0 2.62.29 3.74.87A6.3 6.3 0 0 1 75.82 8a7.1 7.1 0 0 1 1 3.82Zm-7.36-3.71c-.74 0-1.37.2-1.88.63-.5.43-.8 1-.94 1.73h5.65a2.75 2.75 0 0 0-2.83-2.37ZM88.03 4.67c1.71 0 3.09.5 4.12 1.53 1.06 1.02 1.58 2.55 1.58 4.6v7.9H88.9v-7.1c0-1.89-.75-2.83-2.26-2.83-.83 0-1.5.27-2.01.81-.5.55-.74 1.36-.74 2.45v6.67h-4.84V4.9h4.6v1.5a5.34 5.34 0 0 1 1.94-1.27 6.4 6.4 0 0 1 2.45-.46ZM106.3 18.14c-.42.25-.92.45-1.51.58-.58.14-1.2.2-1.86.2-1.8 0-3.18-.44-4.15-1.32-.97-.88-1.45-2.2-1.45-3.94V9.02h-2.01V5.41h2V1.8h4.85v3.6h3.15v3.61h-3.15v4.58c0 .5.12.89.38 1.18.27.27.63.4 1.07.4.56 0 1.05-.14 1.47-.43l1.2 3.39ZM114.04 4.67c2.29 0 4.04.53 5.24 1.58 1.2 1.03 1.81 2.63 1.81 4.78v7.67h-4.5V16.9c-.7 1.34-2.06 2.01-4.08 2.01-1.07 0-2-.18-2.78-.56a4.23 4.23 0 0 1-1.78-1.5 4.14 4.14 0 0 1-.58-2.19c0-1.3.5-2.31 1.5-3.03 1-.72 2.55-1.09 4.63-1.09h2.75c-.08-1.46-1.06-2.19-2.92-2.19-.67 0-1.34.11-2.02.33-.67.2-1.25.5-1.73.87l-1.63-3.29c.77-.5 1.7-.9 2.78-1.17 1.1-.29 2.2-.43 3.3-.43Zm-.18 11.2c.56 0 1.05-.14 1.48-.4.42-.28.73-.68.91-1.2v-1.2h-2.08c-1.41 0-2.12.47-2.12 1.4 0 .42.16.76.49 1.02.32.25.76.38 1.32.38ZM139.19 4.9v11.28c0 2.56-.7 4.48-2.1 5.75-1.38 1.29-3.39 1.93-6 1.93a15.3 15.3 0 0 1-3.82-.46 9.02 9.02 0 0 1-3.03-1.34l1.76-3.39c.56.46 1.26.81 2.11 1.07.87.27 1.71.4 2.55.4 1.27 0 2.2-.27 2.8-.83.6-.56.89-1.4.89-2.5v-.46c-.94 1.09-2.3 1.63-4.1 1.63a7.18 7.18 0 0 1-3.39-.81 6.42 6.42 0 0 1-3.38-5.86c0-1.3.3-2.46.91-3.46a6.18 6.18 0 0 1 2.47-2.34 7 7 0 0 1 3.39-.84c1.97 0 3.41.64 4.33 1.9V4.9h4.6Zm-7.8 9.24a3 3 0 0 0 2.14-.79c.58-.53.87-1.2.87-2.04 0-.83-.28-1.5-.84-2a3.03 3.03 0 0 0-2.16-.8c-.89 0-1.62.27-2.2.8-.55.5-.83 1.17-.83 2 0 .84.28 1.51.86 2.04s1.3.79 2.17.79ZM156.4 11.82l-.08 1.2H146.3c.2.71.6 1.26 1.17 1.65.6.38 1.33.56 2.22.56.66 0 1.23-.09 1.7-.28a5 5 0 0 0 1.48-.91l2.55 2.64c-1.34 1.5-3.3 2.24-5.88 2.24-1.62 0-3.03-.3-4.26-.91a6.93 6.93 0 0 1-2.85-2.55 6.96 6.96 0 0 1-1-3.69c0-1.36.33-2.57.98-3.64a6.91 6.91 0 0 1 2.72-2.54 8.2 8.2 0 0 1 3.9-.92c1.37 0 2.62.29 3.74.87A6.3 6.3 0 0 1 155.4 8a7.1 7.1 0 0 1 .99 3.82Zm-7.36-3.71c-.75 0-1.37.2-1.88.63-.5.43-.8 1-.94 1.73h5.65a2.75 2.75 0 0 0-2.83-2.37Z" fill="#0063BE"/><path d="M10.68 47.05c-1.87 0-3.55-.39-5.04-1.17a8.97 8.97 0 0 1-4.76-8.1c0-1.78.42-3.37 1.27-4.78a8.78 8.78 0 0 1 3.49-3.28c1.5-.8 3.17-1.2 5.04-1.2 1.63 0 3.1.29 4.4.87 1.31.57 2.4 1.4 3.26 2.5l-3.2 2.9a5.28 5.28 0 0 0-4.2-2.1c-.97 0-1.84.22-2.6.64a4.5 4.5 0 0 0-1.76 1.8c-.4.77-.6 1.66-.6 2.66-.01 1 .2 1.89.6 2.67a4.55 4.55 0 0 0 1.76 1.78c.76.43 1.63.64 2.6.64 1.64 0 3.04-.7 4.2-2.09l3.2 2.9a8.47 8.47 0 0 1-3.25 2.5c-1.31.57-2.78.86-4.4.86ZM26.2 32.67c2.29 0 4.03.53 5.24 1.58 1.2 1.03 1.8 2.63 1.8 4.78v7.67h-4.5V44.9c-.7 1.34-2.05 2.01-4.07 2.01-1.07 0-2-.18-2.78-.56a4.23 4.23 0 0 1-1.78-1.5 4.14 4.14 0 0 1-.59-2.19c0-1.3.5-2.31 1.5-3.03 1-.72 2.55-1.09 4.64-1.09h2.75c-.09-1.46-1.06-2.19-2.93-2.19-.66 0-1.33.11-2.01.33-.68.2-1.26.5-1.73.87l-1.63-3.29c.76-.5 1.69-.9 2.77-1.17 1.1-.29 2.21-.43 3.31-.43Zm-.18 11.2c.56 0 1.05-.14 1.47-.4.43-.28.73-.68.92-1.2v-1.2h-2.09c-1.4 0-2.11.47-2.11 1.4 0 .42.16.76.48 1.02.32.25.77.38 1.33.38ZM36.3 27.8h4.84v18.9H36.3V27.8ZM51.33 46.92c-1.52 0-2.89-.3-4.1-.91a6.97 6.97 0 0 1-2.82-2.55 6.95 6.95 0 0 1-1-3.69c0-1.37.34-2.6 1-3.66a6.8 6.8 0 0 1 2.83-2.52 8.94 8.94 0 0 1 4.1-.92c1.56 0 2.9.34 4.04 1.02a5.5 5.5 0 0 1 2.42 2.77l-3.74 1.91c-.63-1.24-1.55-1.86-2.75-1.86-.87 0-1.59.3-2.17.87a3.29 3.29 0 0 0-.84 2.4c0 1.03.28 1.84.84 2.44.58.57 1.3.86 2.17.86 1.2 0 2.12-.62 2.75-1.86l3.74 1.91a5.63 5.63 0 0 1-2.42 2.8c-1.13.66-2.48 1-4.05 1ZM74.13 32.9v13.8h-4.6v-1.48c-.51.56-1.12.98-1.84 1.27-.7.3-1.46.43-2.26.43-1.78 0-3.21-.52-4.28-1.57-1.05-1.06-1.58-2.63-1.58-4.74V32.9h4.84v6.92c0 1.04.2 1.8.58 2.27.4.47.96.71 1.71.71.76 0 1.38-.26 1.86-.79.5-.54.74-1.36.74-2.47V32.9h4.83ZM77.25 27.8h4.84v18.9h-4.84V27.8ZM91.11 32.67c2.3 0 4.04.53 5.25 1.58 1.2 1.03 1.8 2.63 1.8 4.78v7.67h-4.5V44.9c-.7 1.34-2.05 2.01-4.07 2.01-1.07 0-2-.18-2.78-.56a4.23 4.23 0 0 1-1.78-1.5 4.14 4.14 0 0 1-.59-2.19c0-1.3.5-2.31 1.5-3.03 1-.72 2.55-1.09 4.64-1.09h2.75c-.09-1.46-1.06-2.19-2.93-2.19-.66 0-1.33.11-2.01.33-.68.2-1.26.5-1.73.87l-1.63-3.29c.76-.5 1.69-.9 2.77-1.17 1.1-.29 2.21-.43 3.31-.43Zm-.17 11.2c.56 0 1.05-.14 1.47-.4.43-.28.73-.68.92-1.2v-1.2h-2.09c-1.4 0-2.11.47-2.11 1.4 0 .42.16.76.48 1.02.32.25.77.38 1.33.38ZM110.74 46.14c-.4.25-.9.45-1.5.58-.58.14-1.2.2-1.86.2-1.8 0-3.18-.44-4.15-1.32-.97-.88-1.45-2.2-1.45-3.94v-4.64h-2.01v-3.61h2.01v-3.59h4.84v3.59h3.15v3.61h-3.15v4.58c0 .5.12.89.38 1.18.27.27.63.4 1.07.4.56 0 1.05-.14 1.48-.43l1.2 3.39ZM119.13 46.92c-1.47 0-2.8-.3-4-.91a7.01 7.01 0 0 1-2.8-2.55 6.95 6.95 0 0 1-.99-3.69 6.9 6.9 0 0 1 1-3.66 6.87 6.87 0 0 1 2.77-2.52 8.67 8.67 0 0 1 4.02-.92c1.5 0 2.84.3 4.03.92a6.66 6.66 0 0 1 3.77 6.18 6.83 6.83 0 0 1-3.77 6.24 8.67 8.67 0 0 1-4.03.91Zm0-3.84c.85 0 1.55-.29 2.1-.86.53-.6.8-1.41.8-2.45 0-1.02-.27-1.81-.8-2.4a2.74 2.74 0 0 0-2.1-.86c-.84 0-1.54.3-2.08.87a3.35 3.35 0 0 0-.82 2.4c0 1.03.27 1.84.82 2.44.54.57 1.24.86 2.08.86ZM133.78 34.55c.49-.62 1.12-1.09 1.9-1.4.8-.32 1.71-.48 2.73-.48v4.35c-.44-.05-.8-.07-1.1-.07-1.03 0-1.85.28-2.44.84-.58.56-.87 1.41-.87 2.57v6.34h-4.83V32.9h4.6v1.65Z" fill="#3A484A"/>
        </g>
        <!-- 7 12 -->
        <path id="summary" fill-rule="evenodd" clip-rule="evenodd" d="M.3.3a1 1 0 0 1 1.4 0l5 5a1 1 0 0 1 0 1.4l-5 5a1 1 0 0 1-1.4-1.4L4.58 6 .29 1.7A1 1 0 0 1 .3.3Z"/>
        <!-- 20 20 -->
        <path id="copy" fill-rule="evenodd" clip-rule="evenodd" d="M16.86 15.05V13.6h.69c.54 0 .86-.31.86-.84V2.67c0-.53-.32-.83-.86-.83H7.12c-.54 0-.86.3-.87.83v.63H4.73c0-.36-.04-.71 0-1.05C4.89 1.2 5.86.32 7.16.33H17.5l.48.03c1.19.2 1.97 1.1 1.98 2.28V10.01c.01.98.02 1.95-.02 2.93-.06 1.5-1.42 2.4-3.09 2.11ZM.02 13.92V7.17a2.3 2.3 0 0 1 2.39-2.32h10.51c1.34 0 2.37.97 2.37 2.27.02 3.4.02 6.81 0 10.22 0 1.3-1.04 2.27-2.39 2.27H2.4c-.17 0-.35-.02-.53-.05A2.27 2.27 0 0 1 .02 17.3v-3.39Zm13.71 3.3V7.24c0-.6-.28-.87-.9-.87H2.5c-.62 0-.9.28-.9.87v10c0 .6.28.87.9.87h10.34c.62 0 .9-.28.9-.87Z" fill="#0063BE"/>
        <!-- 10 10 -->
        <path id="ok" fill-rule="evenodd" clip-rule="evenodd" d="M9.66346 0.0846561C9.98401 0.260127 10.095 0.65072 9.91142 0.957071L4.62048 9.78523C4.55453 9.89527 4.4035 9.91564 4.31075 9.827L0.195905 5.89438C-0.0653044 5.64473 -0.0653013 5.23999 0.195912 4.99035C0.457125 4.74071 0.880633 4.74071 1.14184 4.99035L4.01953 7.74061C4.11228 7.82925 4.26331 7.80888 4.32926 7.69884L8.75061 0.321636C8.93421 0.0152847 9.34291 -0.0908146 9.66346 0.0846561Z"/>
        <!-- 10 10 -->
        <path id="close" fill-rule="evenodd" clip-rule="evenodd" d="M9.77207 1.32846C10.076 1.02455 10.076 0.53183 9.77207 0.227927C9.46817 -0.0759757 8.97545 -0.0759757 8.67155 0.227927L5 3.89947L1.32846 0.227928C1.02455 -0.0759746 0.53183 -0.0759746 0.227927 0.227928C-0.0759757 0.531831 -0.0759757 1.02455 0.227927 1.32846L3.89947 5L0.228163 8.67131C-0.0757393 8.97521 -0.0757393 9.46793 0.228163 9.77184C0.532066 10.0757 1.02479 10.0757 1.32869 9.77184L5 6.10053L8.67131 9.77184C8.97521 10.0757 9.46793 10.0757 9.77184 9.77184C10.0757 9.46794 10.0757 8.97521 9.77184 8.67131L6.10053 5L9.77207 1.32846Z"/>
        <!-- 13 22 -->
        <path id="facebook" d="M9.753 0c-3.416 0-5.42 1.64-5.42 5.365v3.28H0v3.93h4.333V22h4.333v-9.426h3.465l.866-3.93h-4.33V6.03c0-1.404.505-2.1 1.958-2.1H13V.163A29.197 29.197 0 0 0 9.753 0Z"/>
        <!-- 24 19 -->
        <path id="twitter" d="M22.967 2.344a8.623 8.623 0 0 1-1.099.4 4.86 4.86 0 0 0 .99-1.74.367.367 0 0 0-.537-.427 8.65 8.65 0 0 1-2.557 1.011A4.903 4.903 0 0 0 16.35.196a4.884 4.884 0 0 0-4.839 5.51 12.49 12.49 0 0 1-8.573-4.549.366.366 0 0 0-.601.047 4.876 4.876 0 0 0-.66 2.453c0 1.176.419 2.291 1.16 3.163a4.133 4.133 0 0 1-.653-.292.366.366 0 0 0-.544.312v.066c0 1.754.944 3.334 2.388 4.195a4.223 4.223 0 0 1-.372-.054.366.366 0 0 0-.417.472 4.877 4.877 0 0 0 3.574 3.27 8.632 8.632 0 0 1-4.614 1.317c-.346 0-.693-.02-1.034-.06a.367.367 0 0 0-.24.672 13.157 13.157 0 0 0 7.114 2.086c4.968 0 8.075-2.343 9.807-4.308 2.16-2.45 3.399-5.693 3.399-8.898 0-.133-.002-.269-.006-.403a9.485 9.485 0 0 0 2.182-2.312.366.366 0 0 0-.453-.54Z"/>
        <!-- 38 37 -->
        <path id="reddit" fill-rule="evenodd" clip-rule="evenodd" d="M31.5422 6.83425C33.2607 6.83425 34.6538 5.44115 34.6538 3.72267C34.6538 2.00419 33.2607 0.611084 31.5422 0.611084C30.3429 0.611084 29.3021 1.28963 28.7826 2.28376L21.6525 0.690398C20.9759 0.539178 20.3054 0.967644 20.1584 1.64526L17.8726 12.1802C13.7569 12.3236 10.0372 13.5629 7.25574 15.5049C6.50137 14.713 5.4366 14.2195 4.25657 14.2195C1.96924 14.2195 0.11499 16.0737 0.11499 18.3611C0.11499 19.9969 1.06341 21.4113 2.44038 22.0842C2.28391 22.7459 2.20239 23.4262 2.20239 24.1203C2.20239 30.7223 9.57768 36.0743 18.6756 36.0743C27.7735 36.0743 35.1487 30.7223 35.1487 24.1203C35.1487 23.4268 35.0674 22.747 34.9111 22.0859C36.29 21.4136 37.2399 19.9983 37.2399 18.3611C37.2399 16.0737 35.3857 14.2195 33.0984 14.2195C31.9175 14.2195 30.8521 14.7137 30.0977 15.5065C27.3001 13.5525 23.5528 12.3095 19.408 12.1779L21.5709 2.20915L28.4307 3.74212C28.4412 5.45165 29.8303 6.83425 31.5422 6.83425ZM15.0193 22.5027C15.0193 24.2336 13.6161 25.6368 11.8851 25.6368C10.1542 25.6368 8.75098 24.2336 8.75098 22.5027C8.75098 20.7717 10.1542 19.3685 11.8851 19.3685C13.6161 19.3685 15.0193 20.7717 15.0193 22.5027ZM28.676 22.5027C28.676 24.2336 27.2728 25.6368 25.5419 25.6368C23.8109 25.6368 22.4077 24.2336 22.4077 22.5027C22.4077 20.7717 23.8109 19.3685 25.5419 19.3685C27.2728 19.3685 28.676 20.7717 28.676 22.5027ZM25.5425 30.0004C25.8471 29.7197 25.8664 29.2452 25.5856 28.9406C25.3049 28.6361 24.8304 28.6168 24.5258 28.8975C23.1982 30.1214 20.8548 30.7098 18.4496 30.6578C17.2658 30.6322 16.1118 30.4513 15.1238 30.1417C14.1262 29.829 13.349 29.4015 12.8663 28.9187C12.5734 28.6258 12.0985 28.6258 11.8056 28.9187C11.5127 29.2116 11.5127 29.6865 11.8056 29.9794C12.5207 30.6945 13.5465 31.2193 14.6752 31.573C15.8135 31.9298 17.1093 32.1292 18.4172 32.1575C20.9955 32.2132 23.8034 31.6037 25.5425 30.0004Z"></path>
        <!-- 17 19 -->
        <path id="pinterest" d="M3.97732 11.0417L4.21399 10.1833C4.21399 10.1833 4.32399 9.95506 4.10599 9.71713C3.83732 9.42439 3.25732 8.89072 3.25732 7.56256C3.25732 5.19415 5.32666 2.61493 9.07866 2.61493C12.7613 2.61493 14.0227 4.78094 14.0227 6.57411C14.0227 8.80398 12.8407 12.1379 10.3447 12.1379C8.79466 12.1379 8.34799 11.0573 8.34799 10.5285C8.33799 10.3496 8.38399 10.1695 8.40332 10.084C8.42266 9.99903 9.05266 8.18598 9.25332 7.53967C9.70399 6.09104 9.31866 4.88575 7.84466 4.88575C5.76666 4.88575 5.01866 7.52762 5.93066 9.21779L4.44732 14.7039C4.44732 14.7039 4.24265 15.602 4.20265 16.1321C4.14132 16.9458 4.26932 18.1499 4.31332 18.5089C4.34532 18.7691 4.34532 18.8938 4.47666 18.9173C4.60799 18.9402 4.83199 18.739 5.01265 18.4981C5.23932 18.1945 6.00999 17.2103 6.32332 16.5844C6.60265 16.0261 6.65199 16.0122 6.94132 15.0238C7.23065 14.0347 7.62199 12.6445 7.62199 12.6445C7.62199 12.6445 8.43466 13.9323 10.6327 13.9323C13.7587 13.9323 16.938 11.4724 16.938 6.87408C16.938 3.14679 13.3647 0.847656 9.31866 0.847656C4.22199 0.847656 0.937988 4.11235 0.937988 7.26199C0.937988 10.3351 2.82066 11.0561 3.21532 11.2627C3.60932 11.4711 3.88932 11.3248 3.97732 11.0417Z"/>
    </defs>
</svg>